
<svg version="1.0" xmlns="http://www.w3.org/2000/svg"
viewBox="0 0 1700.000000 1700.000000"
 preserveAspectRatio="xMidYMid meet">

<g transform="translate(0.000000,1536.000000) scale(0.100000,-0.100000)"
fill="#1e9915" stroke="none">
<path d="M1980 15345 c0 -8 -12 -18 -27 -21 -120 -30 -235 -163 -263 -302 -12
-65 2 -433 25 -627 30 -248 98 -601 151 -785 27 -95 104 -333 119 -370 7 -19
30 -78 50 -130 160 -421 441 -912 734 -1280 294 -369 677 -736 1026 -980 174
-123 211 -147 340 -223 72 -43 137 -82 145 -87 21 -14 381 -192 453 -225 77
-35 276 -111 357 -136 36 -12 81 -27 100 -34 32 -12 58 -21 190 -60 158 -48
520 -118 765 -149 453 -57 926 -46 1405 30 128 21 384 72 440 88 25 8 97 28
160 46 63 18 126 36 140 42 14 5 72 26 130 45 334 113 826 359 1115 558 159
109 208 144 304 219 446 347 857 797 1160 1271 175 275 341 600 446 875 68
179 74 196 120 340 64 205 93 320 135 540 11 58 27 139 35 180 8 42 15 92 15
112 0 20 7 79 15 130 21 136 38 544 24 610 -29 142 -142 272 -261 302 -16 3
-28 13 -28 21 0 13 -35 15 -245 15 -186 0 -244 -3 -243 -12 3 -14 -60 -26
-141 -27 -140 -2 -697 -110 -876 -170 -16 -5 -75 -24 -130 -41 -126 -40 -295
-101 -405 -147 -85 -35 -494 -236 -560 -274 -360 -213 -656 -431 -935 -688
-346 -320 -684 -740 -926 -1151 -99 -169 -240 -450 -272 -542 -4 -10 -16 -18
-27 -18 -11 0 -23 8 -27 18 -14 43 -174 375 -203 422 -5 8 -50 84 -100 168
-415 698 -1018 1300 -1737 1735 -48 29 -95 56 -103 60 -8 4 -31 17 -50 28 -43
26 -282 146 -365 184 -33 15 -73 33 -90 41 -61 28 -264 103 -400 148 -77 25
-155 51 -173 57 -196 64 -701 159 -927 174 -63 4 -93 10 -101 20 -17 22 -484
22 -484 0z m675 -825 c50 -6 118 -18 152 -26 34 -8 74 -14 88 -14 30 0 133
-25 365 -90 123 -34 192 -56 280 -91 30 -11 66 -23 80 -26 14 -3 30 -9 35 -13
6 -4 53 -26 105 -48 125 -53 270 -123 345 -167 33 -19 67 -38 75 -42 29 -14
194 -115 269 -165 467 -315 849 -700 1197 -1208 17 -25 61 -97 98 -160 37 -63
71 -122 76 -130 19 -30 158 -316 179 -367 12 -29 31 -77 43 -105 101 -247 185
-540 232 -813 50 -284 55 -329 37 -340 -19 -11 -389 50 -551 91 -203 51 -430
121 -535 163 -38 16 -95 39 -125 51 -228 93 -568 276 -745 402 -153 108 -265
194 -360 274 -461 389 -828 860 -1086 1394 -130 268 -171 373 -248 630 -55
179 -59 195 -100 385 -19 84 -40 215 -51 314 -11 102 -4 126 34 118 12 -3 62
-10 111 -17z m8314 6 c20 -24 -27 -355 -75 -522 -7 -28 -14 -59 -14 -69 0 -9
-7 -38 -15 -64 -157 -496 -160 -506 -299 -791 -66 -138 -90 -181 -179 -330
-275 -461 -682 -906 -1117 -1223 -166 -121 -178 -129 -305 -207 -405 -247
-764 -396 -1245 -515 -181 -45 -531 -102 -551 -89 -13 8 -11 55 7 163 34 212
45 269 91 461 30 124 90 323 121 400 5 14 18 45 27 70 10 25 21 54 26 65 4 11
20 49 34 85 24 60 163 345 185 380 5 8 45 76 89 150 336 572 874 1111 1453
1455 51 31 100 60 108 65 52 33 325 166 430 210 250 104 374 146 645 215 127
33 457 94 561 104 6 1 17 -5 23 -13z"/>
<path d="M248 8969 c-120 -47 -191 -120 -232 -240 -21 -59 -21 -196 1 -261 35
-109 126 -200 237 -238 60 -20 76 -20 6486 -20 6410 0 6426 0 6486 20 117 40
203 130 243 256 26 84 27 144 2 222 -25 77 -35 96 -78 150 -41 50 -90 83 -165
112 -53 20 -67 20 -6493 19 -6269 -1 -6441 -2 -6487 -20z"/>
<path d="M279 7285 c-63 -17 -96 -36 -152 -85 -89 -79 -127 -165 -127 -292 0
-86 5 -110 53 -278 13 -47 45 -161 71 -255 26 -93 52 -181 57 -195 5 -14 16
-50 24 -80 9 -30 20 -68 24 -85 9 -31 17 -59 76 -270 20 -71 43 -150 50 -175
21 -73 47 -163 56 -195 4 -16 17 -61 29 -100 25 -85 49 -170 60 -210 21 -80
96 -342 124 -435 10 -30 21 -71 26 -90 5 -19 16 -57 24 -85 40 -136 68 -235
111 -390 55 -196 77 -267 100 -312 29 -58 101 -127 169 -163 65 -34 71 -35
174 -35 85 0 117 4 152 20 154 67 204 142 280 420 12 44 25 91 29 105 5 14 16
52 25 85 23 79 40 138 60 205 16 53 89 314 122 435 9 33 22 78 29 100 7 22 20
65 28 95 9 30 30 100 46 155 16 55 45 161 66 235 20 74 40 146 44 160 5 14 16
52 25 85 24 82 41 140 60 205 18 61 97 341 122 435 9 33 22 78 28 100 13 40
32 105 62 213 9 31 20 67 25 78 8 22 33 126 44 180 9 45 -10 147 -39 207 -81
171 -272 261 -451 213 -117 -31 -205 -100 -253 -199 -33 -70 -45 -105 -97
-297 -20 -74 -40 -146 -45 -160 -4 -14 -16 -54 -25 -90 -10 -36 -23 -83 -30
-105 -27 -87 -48 -158 -106 -365 -73 -261 -87 -311 -105 -372 -8 -27 -20 -69
-28 -95 -53 -183 -59 -196 -74 -166 -9 15 -48 148 -93 308 -4 17 -17 62 -29
100 -12 39 -25 86 -30 105 -5 19 -16 58 -24 85 -27 92 -66 229 -82 290 -9 33
-22 78 -29 100 -7 22 -20 69 -30 105 -10 36 -23 83 -30 105 -7 22 -19 65 -28
95 -9 30 -27 93 -41 140 -14 47 -30 105 -36 130 -25 98 -105 201 -195 250 -85
48 -201 61 -296 35z"/>
<path d="M3244 7285 c-111 -35 -201 -111 -251 -212 l-28 -58 0 -1590 0 -1590
28 -57 c58 -118 158 -198 281 -224 88 -19 1335 -19 1421 0 129 28 226 102 281
214 26 52 28 67 28 172 0 106 -2 119 -29 174 -48 99 -133 172 -241 207 -28 9
-169 14 -509 18 l-470 6 -3 329 c-1 223 1 333 8 340 7 7 109 13 278 16 l267 5
57 28 c84 41 148 104 188 184 32 65 34 73 34 179 0 88 -4 117 -17 138 -9 14
-17 30 -17 36 0 20 -81 118 -118 142 -103 69 -113 71 -407 77 l-270 6 -3 334
c-2 261 1 336 10 343 7 4 207 8 444 8 441 0 512 5 590 40 63 29 136 102 174
172 33 61 34 66 34 183 1 118 0 121 -33 183 -35 65 -107 138 -164 168 -82 42
-111 43 -832 43 -532 -1 -699 -4 -731 -14z"/>
<path d="M11299 7286 c-156 -43 -265 -167 -290 -328 -6 -39 -8 -637 -7 -1578
4 -1675 -2 -1545 68 -1658 32 -52 90 -101 170 -143 39 -21 59 -23 160 -24 94
0 121 3 143 17 14 10 33 18 40 18 8 0 43 27 79 60 64 58 98 112 121 190 7 22
13 306 16 778 4 481 10 743 16 745 8 2 140 -214 175 -288 6 -11 14 -27 20 -35
10 -15 46 -79 92 -161 14 -24 70 -123 125 -219 55 -96 109 -191 120 -210 11
-19 63 -109 115 -200 52 -91 97 -172 101 -180 4 -8 16 -28 26 -45 11 -16 31
-50 44 -75 130 -235 194 -316 289 -362 87 -43 149 -53 232 -38 78 14 107 27
182 82 63 46 99 97 130 183 l24 66 0 1542 c0 1445 -1 1546 -18 1592 -74 212
-270 324 -474 271 -138 -36 -248 -144 -284 -278 -11 -43 -14 -191 -14 -795 0
-420 -4 -743 -9 -743 -13 0 -44 41 -67 90 -4 8 -50 89 -102 180 -52 91 -106
185 -120 210 -13 25 -28 50 -32 55 -4 6 -39 66 -77 135 -39 69 -79 141 -90
160 -11 19 -64 112 -118 205 -54 94 -107 187 -119 208 -11 21 -26 46 -31 55
-6 9 -46 80 -89 157 -134 236 -169 281 -260 327 -91 47 -196 59 -287 34z"/>
<path d="M6265 7284 c-22 -2 -69 -12 -105 -21 -240 -60 -390 -141 -545 -298
-161 -161 -249 -327 -301 -565 -18 -79 -19 -143 -19 -985 l0 -900 31 -120 c81
-313 280 -570 549 -709 85 -44 194 -85 255 -96 25 -5 61 -14 80 -20 58 -18
355 -16 441 4 245 57 416 145 567 294 169 166 256 328 312 582 25 115 39 492
22 601 -24 153 -118 268 -262 323 -37 14 -86 18 -255 19 -116 2 -241 0 -280
-4 -264 -24 -421 -288 -323 -544 41 -108 161 -210 271 -230 38 -7 41 -12 37
-54 -5 -58 -97 -157 -179 -194 -70 -31 -181 -34 -254 -7 -107 40 -176 110
-211 214 -15 47 -17 119 -14 866 l3 815 27 56 c35 70 95 130 166 165 45 22 68
27 141 27 101 0 170 -25 239 -88 64 -58 112 -171 112 -265 0 -136 92 -272 230
-341 61 -31 72 -33 165 -33 92 0 105 3 165 33 90 45 146 101 188 191 33 72 35
80 34 181 -2 292 -129 601 -327 793 -102 99 -237 187 -362 235 -144 56 -231
72 -398 76 -88 2 -178 1 -200 -1z"/>
<path d="M9110 7280 c-323 -48 -596 -244 -740 -529 -58 -117 -84 -203 -105
-351 -21 -149 -22 -2464 -1 -2552 29 -120 100 -208 214 -264 52 -25 67 -28
167 -28 104 0 114 2 177 33 82 39 158 119 190 201 22 52 23 71 26 387 2 259 6
334 16 342 9 8 87 11 237 9 l224 -3 6 -340 c5 -329 6 -342 28 -390 65 -138
160 -213 307 -244 75 -16 149 -3 241 41 73 34 139 104 181 188 l27 55 3 1260
c2 1111 0 1270 -13 1345 -71 382 -297 663 -630 782 -150 54 -183 60 -344 63
-86 2 -181 0 -211 -5z m276 -797 c18 -8 48 -31 68 -51 65 -65 67 -78 64 -617
l-3 -480 -235 0 -235 0 0 500 c0 551 -3 527 64 598 66 72 186 94 277 50z"/>
<path d="M292 2629 c-121 -24 -240 -134 -278 -258 -17 -56 -18 -189 -2 -245
35 -120 132 -216 260 -257 60 -19 167 -19 6468 -19 6301 0 6408 0 6468 19 136
44 227 139 265 277 22 77 21 135 -1 204 -40 129 -108 207 -229 263 l-48 22
-6430 1 c-3536 1 -6449 -2 -6473 -7z"/>
</g>
</svg>
