<svg version="1.0" xmlns="http://www.w3.org/2000/svg"
 width="20.000000pt" height="20.000000pt" viewBox="0 0 1400.000000 1400.000000"
 preserveAspectRatio="xMidYMid meet">
<g transform="translate(0.000000,1536.000000) scale(0.100000,-0.100000)"
fill="#000000" stroke="none">
<path d="M6223 15348 c1 -9 -23 -15 -83 -21 -322 -28 -709 -91 -955 -154 -55
-14 -118 -29 -140 -34 -22 -4 -62 -15 -90 -23 -27 -9 -79 -24 -115 -35 -212
-62 -319 -97 -425 -138 -22 -8 -58 -22 -80 -30 -22 -9 -49 -19 -60 -24 -11 -4
-64 -26 -117 -49 -53 -22 -99 -40 -102 -40 -16 0 -517 -247 -586 -289 -19 -11
-42 -24 -50 -28 -45 -20 -333 -199 -468 -291 -809 -544 -1495 -1270 -2006
-2120 -47 -79 -86 -145 -86 -148 0 -2 -11 -22 -24 -43 -27 -41 -187 -357 -234
-461 -42 -93 -159 -372 -194 -465 -28 -75 -82 -237 -118 -355 -70 -231 -77
-256 -134 -485 -51 -208 -115 -621 -145 -940 -14 -144 -14 -999 -1 -1135 34
-342 100 -771 145 -945 8 -27 21 -81 30 -120 17 -75 22 -91 90 -323 45 -150
91 -288 122 -367 8 -22 21 -56 28 -75 22 -58 75 -194 85 -215 5 -11 21 -49 35
-85 31 -76 256 -531 285 -575 11 -16 24 -39 29 -51 18 -41 210 -351 287 -464
511 -752 1181 -1408 1929 -1890 56 -36 346 -210 351 -210 2 0 21 -11 42 -24
40 -25 358 -186 462 -234 113 -52 226 -98 430 -177 19 -7 58 -22 85 -33 81
-32 319 -107 480 -152 431 -120 740 -175 1295 -231 63 -6 259 -14 435 -16 430
-7 737 17 1215 94 226 36 232 38 400 79 58 15 123 30 145 35 22 4 63 14 90 23
28 8 75 21 105 30 96 26 343 104 400 126 30 12 66 25 80 30 14 4 39 13 55 20
17 7 39 16 50 21 11 4 64 26 117 49 53 22 99 40 102 40 16 0 440 207 576 281
847 464 1601 1124 2193 1919 106 143 407 605 407 626 0 2 10 21 23 42 106 169
319 615 414 867 8 22 19 48 24 57 8 16 47 124 89 248 43 127 119 387 153 525
9 33 20 79 26 102 36 137 98 496 125 728 41 341 46 432 46 800 0 491 -30 816
-121 1300 -29 150 -37 189 -75 340 -62 244 -205 700 -243 773 -5 9 -16 35 -24
57 -159 422 -399 879 -683 1302 -430 640 -966 1201 -1594 1669 -158 117 -613
414 -636 414 -2 0 -21 11 -42 23 -139 88 -457 244 -712 351 -173 73 -167 71
-220 91 -25 9 -56 22 -70 27 -86 34 -395 131 -587 184 -32 9 -74 21 -93 27
-19 6 -53 14 -75 18 -22 4 -71 14 -110 23 -221 52 -601 110 -865 133 -60 6
-84 12 -83 21 2 9 -106 12 -517 12 -411 0 -519 -3 -517 -12z m937 -778 c149
-10 281 -24 405 -42 39 -6 93 -14 120 -18 202 -28 664 -137 860 -202 50 -16
104 -33 120 -38 17 -5 53 -17 80 -28 28 -11 109 -42 180 -70 124 -47 152 -59
285 -119 126 -58 370 -180 438 -220 40 -24 75 -43 78 -43 8 0 295 -181 394
-248 152 -104 235 -167 395 -298 200 -164 248 -209 244 -223 -7 -21 -1592
-1602 -1603 -1598 -5 2 -59 75 -118 163 l-108 159 0 236 c0 278 -15 373 -80
514 -63 135 -227 291 -365 347 -139 57 -11 53 -1650 53 l-1500 0 -60 -22
c-221 -79 -352 -188 -443 -368 -71 -141 -74 -155 -81 -450 -5 -203 -10 -276
-20 -295 -8 -14 -58 -81 -111 -150 -251 -326 -370 -480 -415 -540 -28 -36 -55
-72 -62 -80 -7 -8 -60 -78 -119 -155 -60 -77 -167 -216 -239 -310 -72 -93
-167 -217 -210 -275 -43 -58 -84 -109 -90 -115 -27 -24 -184 -244 -204 -286
l-21 -46 3 -2099 c2 -1154 7 -2114 12 -2133 l8 -33 -482 -482 -482 -481 -62
65 c-138 146 -462 573 -562 742 -5 10 -35 59 -66 110 -31 51 -69 115 -84 142
-15 28 -40 70 -55 95 -26 45 -143 282 -213 431 -69 148 -188 465 -260 695 -25
78 -82 300 -114 440 -8 39 -22 93 -29 122 -8 28 -14 63 -14 77 0 15 -6 55 -14
89 -85 372 -112 1185 -56 1647 23 185 42 318 56 377 8 34 14 74 14 89 0 15 6
53 14 83 8 31 22 92 32 136 21 97 99 392 119 455 8 25 24 72 35 105 10 33 29
85 40 115 12 30 28 75 37 100 18 53 79 210 100 260 51 118 215 456 252 519 16
26 41 69 56 97 176 317 483 744 720 1004 96 105 457 465 522 520 272 230 397
326 613 472 152 102 310 200 440 272 76 43 445 226 454 226 3 0 30 12 59 26
28 14 99 44 157 66 58 22 128 49 155 60 28 11 64 24 80 28 17 5 95 31 175 59
132 44 443 126 630 164 41 9 109 23 150 32 41 8 85 15 98 15 13 0 60 7 105 14
97 18 257 35 417 45 171 12 674 12 840 1z m4075 -2017 c248 -275 546 -696 739
-1043 46 -82 201 -396 254 -515 34 -75 108 -265 166 -425 126 -344 246 -869
296 -1285 46 -397 46 -992 0 -1375 -19 -151 -41 -293 -56 -357 -8 -34 -14 -74
-14 -89 0 -15 -6 -50 -14 -78 -8 -28 -23 -87 -32 -131 -45 -208 -132 -503
-194 -665 -12 -30 -25 -66 -30 -80 -40 -126 -119 -307 -246 -565 -176 -358
-352 -644 -587 -955 -241 -318 -586 -688 -859 -919 -142 -120 -202 -168 -318
-256 -201 -151 -473 -329 -690 -449 -123 -69 -571 -286 -589 -286 -5 0 -42
-14 -82 -31 -41 -17 -90 -37 -109 -44 -61 -22 -124 -47 -158 -61 -18 -8 -39
-14 -47 -14 -8 0 -29 -6 -47 -14 -46 -20 -209 -68 -358 -106 -200 -50 -218
-54 -475 -105 -284 -58 -646 -88 -1045 -88 -352 0 -615 18 -847 59 -45 8 -94
14 -108 14 -15 0 -59 7 -99 15 -39 9 -105 23 -146 31 -41 9 -100 22 -130 30
-30 7 -93 23 -140 34 -87 21 -356 98 -420 121 -141 49 -431 160 -500 191 -102
46 -458 223 -530 264 -234 132 -445 270 -665 434 -218 163 -435 348 -435 371
0 20 812 829 832 829 9 0 19 -4 23 -10 13 -21 194 -150 252 -179 84 -42 196
-78 295 -96 122 -22 5098 -22 5229 -1 219 36 409 135 569 296 147 148 236 322
281 550 18 91 19 183 19 2166 l0 2071 -30 57 c-17 31 -97 155 -177 274 -448
665 -534 794 -531 803 5 16 1672 1679 1683 1679 6 0 37 -30 70 -67z m-2947
-253 c61 -45 66 -65 70 -270 2 -112 -1 -191 -7 -200 -9 -13 -190 -15 -1508
-17 -824 -2 -1504 1 -1511 6 -21 13 -17 382 4 427 14 30 46 58 84 76 8 4 650
6 1425 5 l1410 -2 33 -25z m230 -962 c61 -85 143 -198 187 -263 39 -57 79
-114 227 -322 34 -49 83 -119 110 -158 53 -76 120 -171 218 -310 35 -49 76
-108 92 -130 15 -22 46 -65 68 -95 58 -80 67 -99 49 -111 -8 -5 -607 -9 -1465
-9 -1146 0 -1453 3 -1465 13 -22 17 -44 50 -251 357 -452 673 -598 889 -641
953 -60 87 -69 105 -62 117 4 7 519 10 1450 10 l1444 0 39 -52z m-3423 -76
c11 -8 30 -36 330 -482 109 -162 276 -411 372 -552 95 -142 173 -262 173 -267
0 -5 -7 -12 -16 -15 -20 -8 -1862 -8 -1891 0 -13 4 -23 10 -23 15 0 5 53 75
118 157 65 81 136 170 157 198 22 28 67 84 100 125 32 41 138 173 234 294 368
463 426 535 431 535 3 0 10 -4 15 -8z m1073 -1814 c9 -9 12 -484 12 -2078 0
-1136 -4 -2071 -8 -2078 -13 -19 -1928 -18 -1992 2 -171 52 -291 174 -335 341
-13 52 -15 283 -15 1932 0 1772 1 1873 18 1882 27 16 2304 15 2320 -1z m3477
-1898 c0 -1793 -1 -1908 -18 -1953 -53 -146 -182 -266 -326 -303 -76 -20
-2670 -21 -2683 -2 -4 7 -8 942 -8 2079 0 1596 3 2068 12 2077 9 9 355 11
1518 10 l1505 -3 0 -1905z"/>
</g>
</svg>
