 <svg  version="1.0" xmlns="http://www.w3.org/2000/svg"  width="2000.000000pt" height="2000.000000pt" viewBox="-300 -100 2000.000000 1500.000000"  preserveAspectRatio="xMidYMid meet">  <g transform="translate(0.000000,1974.000000) scale(0.100000,-0.100000)" fill="#257807" stroke="none"> <path d="M13320 19726 c0 -10 -19 -18 -57 -25 -32 -6 -72 -16 -89 -21 -17 -6 -39 -10 -49 -10 -17 0 -66 -12 -175 -44 -25 -8 -76 -21 -115 -30 -38 -9 -115 -28 -170 -42 -118 -30 -213 -52 -275 -63 -25 -5 -81 -19 -125 -31 -87 -24 -174 -44 -275 -65 -36 -7 -96 -21 -135 -29 -38 -9 -99 -21 -134 -26 -35 -6 -67 -13 -72 -15 -4 -3 -34 -10 -66 -16 -32 -6 -71 -14 -88 -19 -28 -8 -99 -23 -240 -50 -33 -7 -87 -18 -120 -27 -33 -8 -82 -18 -110 -22 -27 -5 -70 -13 -95 -19 -42 -10 -110 -25 -260 -57 -36 -7 -92 -19 -125 -25 -70 -13 -145 -31 -230 -55 -33 -9 -78 -20 -100 -24 -22 -4 -74 -19 -115 -33 -41 -14 -104 -35 -140 -46 -36 -11 -89 -32 -117 -46 -29 -14 -58 -26 -64 -26 -21 0 -217 -105 -314 -169 -55 -36 -104 -68 -110 -70 -5 -2 -36 -24 -67 -48 -31 -23 -60 -43 -64 -43 -3 0 -24 -15 -44 -32 -21 -18 -71 -58 -111 -88 -87 -66 -346 -320 -418 -410 -140 -174 -271 -361 -331 -469 -14 -25 -37 -64 -51 -86 -24 -38 -167 -324 -194 -390 -7 -16 -18 -41 -23 -55 -6 -14 -21 -50 -32 -80 -12 -30 -26 -64 -30 -75 -19 -47 -68 -203 -94 -300 -9 -33 -22 -76 -28 -95 -7 -19 -15 -57 -19 -85 -8 -51 -22 -125 -39 -205 -10 -43 -17 -106 -41 -360 -24 -255 24 -702 85 -786 12 -16 16 -16 31 -4 17 14 78 139 131 270 10 25 31 66 46 91 15 25 28 51 28 57 0 6 13 34 30 62 16 28 30 53 30 55 0 15 227 371 294 461 17 23 39 53 48 65 9 13 38 53 65 88 26 35 61 83 78 105 16 23 34 46 41 51 6 6 35 39 64 75 29 36 69 85 89 110 181 224 600 634 796 781 261 195 752 402 862 363 15 -5 29 -17 31 -27 3 -16 -53 -116 -86 -154 -9 -10 -35 -41 -57 -68 -22 -27 -63 -75 -91 -105 -29 -30 -71 -78 -95 -106 -24 -28 -91 -104 -149 -168 -58 -64 -125 -141 -148 -169 -24 -29 -53 -63 -65 -77 -29 -33 -134 -175 -227 -306 -41 -59 -106 -150 -145 -204 -94 -132 -148 -208 -160 -228 -6 -10 -28 -44 -50 -77 -49 -73 -34 -49 -189 -306 -71 -118 -149 -252 -174 -299 -24 -47 -48 -89 -52 -95 -30 -41 -350 -663 -350 -681 0 -4 -21 -50 -46 -103 -88 -181 -205 -433 -279 -596 -15 -33 -35 -77 -46 -98 -10 -21 -19 -46 -19 -55 0 -10 -4 -22 -9 -27 -5 -6 -26 -50 -46 -100 -45 -108 -48 -117 -74 -177 -12 -26 -21 -51 -21 -57 0 -6 -7 -27 -16 -48 -9 -21 -20 -47 -25 -58 -4 -11 -17 -41 -28 -67 -12 -26 -21 -53 -21 -60 0 -8 -4 -18 -8 -24 -5 -5 -19 -38 -31 -74 -13 -36 -27 -74 -32 -85 -5 -11 -16 -42 -25 -70 -9 -27 -22 -63 -30 -80 -7 -16 -26 -68 -43 -115 -16 -47 -48 -137 -71 -200 -23 -63 -48 -133 -55 -155 -8 -22 -27 -76 -44 -120 -16 -44 -35 -96 -42 -115 -12 -35 -28 -78 -56 -155 -8 -22 -21 -55 -29 -73 -8 -18 -14 -38 -14 -44 0 -6 -14 -48 -31 -92 -38 -97 -51 -134 -74 -206 -9 -30 -23 -69 -31 -87 -8 -17 -14 -37 -14 -45 -1 -7 -19 -65 -41 -128 -22 -63 -44 -131 -49 -150 -4 -19 -18 -60 -29 -90 -12 -30 -26 -71 -31 -90 -5 -19 -26 -87 -48 -150 -51 -150 -161 -491 -207 -645 -10 -33 -31 -98 -46 -145 -14 -47 -48 -152 -74 -235 -61 -193 -74 -233 -91 -272 -8 -17 -14 -36 -14 -43 0 -14 -56 -183 -76 -227 -8 -17 -14 -40 -14 -50 0 -10 -4 -23 -9 -28 -5 -6 -14 -26 -19 -45 -13 -42 -60 -171 -96 -261 -14 -36 -26 -70 -26 -76 0 -6 -6 -24 -14 -40 -8 -15 -25 -50 -38 -77 -31 -66 -52 -79 -75 -46 -22 32 -53 91 -53 103 0 5 -6 23 -14 40 -8 18 -22 57 -31 87 -17 52 -27 82 -59 168 -8 20 -22 66 -31 102 -10 36 -31 110 -47 165 -16 55 -35 123 -43 150 -7 28 -27 94 -44 148 -17 54 -31 104 -31 112 0 8 -12 54 -26 102 -14 49 -30 104 -34 123 -11 50 -30 122 -58 220 -13 47 -28 101 -32 120 -9 39 -39 152 -65 245 -10 33 -21 78 -24 100 -4 22 -13 56 -19 75 -6 19 -18 62 -27 95 -9 33 -22 83 -30 110 -8 28 -19 70 -25 95 -6 25 -18 70 -26 100 -8 30 -19 73 -24 95 -6 22 -19 72 -31 110 -11 39 -24 86 -28 105 -22 92 -35 142 -58 220 -14 47 -27 96 -30 110 -2 14 -10 48 -18 75 -8 28 -21 79 -31 115 -9 36 -22 85 -30 110 -7 25 -22 81 -34 125 -12 44 -33 112 -46 152 -13 39 -24 81 -24 92 0 11 -6 38 -14 58 -8 21 -22 65 -31 98 -18 64 -28 97 -74 245 -16 52 -39 129 -51 170 -12 41 -31 100 -42 130 -11 30 -23 71 -28 90 -4 19 -18 60 -30 90 -12 30 -26 71 -31 90 -5 19 -25 80 -44 135 -20 55 -40 114 -45 130 -4 17 -18 55 -30 85 -39 101 -51 135 -57 155 -9 34 -47 130 -55 140 -4 5 -8 17 -8 26 0 16 -19 65 -66 167 -13 29 -24 57 -24 63 0 5 -9 31 -21 57 -26 61 -33 78 -54 132 -9 25 -23 59 -30 75 -8 17 -30 73 -50 125 -20 52 -41 99 -46 105 -5 5 -9 15 -9 23 0 8 -6 28 -14 45 -7 18 -23 57 -35 87 -12 30 -27 66 -33 80 -5 14 -16 39 -23 55 -6 17 -26 59 -43 95 -17 36 -43 94 -59 130 -45 104 -238 478 -259 501 -8 8 -14 19 -14 23 0 5 -37 69 -82 143 -46 74 -87 142 -93 151 -22 37 -206 310 -242 359 -21 29 -71 99 -112 155 -41 57 -118 157 -170 222 -53 66 -123 153 -155 195 -56 71 -218 264 -242 286 -5 6 -26 30 -46 55 -20 25 -46 57 -59 71 -13 14 -49 54 -79 90 -30 35 -65 73 -76 84 -12 11 -78 83 -146 160 -183 205 -552 573 -650 650 -15 11 -46 38 -70 60 -23 22 -65 58 -93 80 -27 22 -52 42 -55 45 -9 11 -222 175 -269 208 -25 18 -86 62 -136 97 -49 35 -128 88 -175 116 -47 29 -98 62 -115 74 -16 12 -43 29 -60 37 -16 8 -68 35 -115 60 -150 81 -164 88 -180 88 -9 0 -20 4 -26 8 -8 7 -44 22 -149 61 -50 18 -127 33 -180 35 -44 1 -50 -1 -53 -21 -2 -12 5 -34 15 -50 28 -44 187 -239 313 -383 30 -35 89 -102 130 -149 41 -47 129 -151 195 -231 67 -80 154 -185 195 -235 41 -49 86 -104 100 -121 14 -18 68 -87 120 -154 52 -67 106 -136 120 -154 125 -164 178 -235 193 -256 9 -14 30 -43 46 -65 35 -47 72 -98 126 -175 21 -30 41 -57 44 -60 4 -3 57 -81 119 -175 62 -93 122 -183 135 -199 12 -16 24 -34 26 -40 2 -6 24 -39 48 -74 23 -35 43 -67 43 -71 0 -4 13 -26 28 -47 16 -21 31 -46 35 -54 4 -8 15 -27 25 -42 63 -97 187 -303 207 -343 9 -16 19 -37 25 -45 43 -70 100 -171 100 -178 0 -5 9 -21 20 -34 11 -14 39 -63 63 -109 25 -46 59 -111 77 -144 91 -167 140 -261 254 -490 114 -231 191 -391 236 -490 10 -22 29 -65 43 -95 14 -30 41 -93 62 -140 20 -47 44 -101 53 -120 8 -19 23 -55 33 -80 50 -132 123 -313 138 -340 5 -9 12 -30 15 -48 4 -17 12 -34 17 -37 5 -4 9 -15 9 -27 0 -11 6 -32 14 -46 8 -15 24 -54 35 -87 11 -33 30 -85 41 -115 12 -30 33 -86 46 -125 14 -38 29 -79 34 -90 5 -11 19 -51 31 -90 12 -38 26 -74 31 -79 4 -6 8 -18 8 -27 0 -10 13 -53 29 -96 15 -43 38 -107 49 -143 12 -36 32 -96 45 -135 13 -38 45 -137 71 -220 26 -82 52 -163 57 -180 6 -16 15 -46 20 -65 6 -19 14 -44 19 -55 5 -11 11 -31 13 -45 3 -14 11 -41 17 -60 31 -87 38 -108 53 -160 17 -61 55 -191 67 -230 4 -14 14 -50 23 -80 8 -30 25 -89 37 -130 12 -41 26 -88 31 -105 21 -76 54 -187 75 -255 13 -41 24 -84 24 -95 0 -11 7 -33 15 -49 8 -15 15 -34 15 -42 0 -7 6 -33 14 -56 8 -24 21 -70 31 -103 9 -33 22 -78 29 -100 7 -22 20 -65 29 -95 19 -69 56 -197 67 -230 25 -82 90 -317 100 -360 7 -32 29 -116 66 -250 9 -30 18 -68 21 -85 3 -16 16 -68 30 -115 23 -80 44 -163 63 -255 5 -22 16 -67 25 -100 16 -61 22 -84 49 -190 50 -197 69 -274 76 -310 4 -22 18 -76 30 -120 12 -44 25 -101 30 -127 5 -27 12 -53 15 -59 4 -5 10 -34 15 -62 4 -29 18 -88 30 -132 12 -44 25 -100 30 -125 4 -25 13 -65 19 -90 45 -172 64 -252 71 -301 4 -31 12 -71 18 -90 5 -19 18 -70 27 -114 9 -44 23 -103 31 -132 8 -28 14 -62 14 -76 0 -14 6 -47 14 -73 16 -56 35 -138 46 -204 5 -25 18 -88 30 -140 11 -52 28 -124 36 -160 8 -36 19 -96 24 -133 5 -38 13 -73 16 -79 7 -12 30 -111 43 -193 5 -27 13 -68 19 -90 6 -22 16 -65 22 -95 7 -30 19 -84 26 -120 8 -36 19 -85 24 -110 5 -25 25 -108 45 -185 20 -77 40 -160 45 -185 17 -89 57 -148 129 -189 58 -32 344 -55 607 -47 370 10 460 38 518 160 35 74 96 256 96 287 0 15 11 69 24 120 13 52 29 127 35 168 7 41 14 78 17 83 3 5 9 41 14 81 5 40 18 122 29 182 12 61 25 146 30 190 5 44 12 87 15 95 3 8 10 49 16 90 15 115 37 256 45 280 4 12 11 58 16 103 5 45 15 118 23 162 7 44 19 114 25 155 7 41 17 102 23 135 6 33 14 89 19 125 4 36 14 101 22 145 8 44 20 114 26 155 7 41 18 113 26 160 8 47 17 101 19 120 8 59 35 190 41 200 3 6 10 40 15 78 5 37 15 99 23 137 8 39 20 97 26 130 6 33 16 80 22 105 6 25 15 72 19 105 4 33 18 94 30 135 12 41 26 98 30 125 10 59 26 131 45 200 19 69 41 160 55 225 11 54 38 158 65 255 8 28 16 61 19 75 2 14 16 66 31 115 35 121 38 130 80 285 49 183 65 238 80 285 7 22 21 67 30 100 9 33 28 94 42 135 14 41 29 93 33 115 10 44 33 121 43 145 8 18 36 114 43 150 3 14 9 34 14 45 5 11 18 49 29 85 12 36 40 119 62 185 23 66 44 134 49 150 12 48 142 424 167 482 7 17 13 35 13 41 0 5 13 43 28 83 16 41 35 92 42 114 7 22 18 54 26 70 19 45 93 231 120 305 13 36 28 74 33 85 6 11 20 45 32 75 12 30 32 78 44 105 13 28 33 73 45 100 129 293 302 622 380 725 15 19 29 40 31 46 16 47 158 188 214 214 73 33 184 65 280 81 28 4 93 18 145 29 52 12 120 25 150 30 30 4 73 12 95 18 22 6 76 18 120 27 44 9 98 21 120 27 22 5 60 13 85 18 25 4 56 13 70 18 14 6 59 20 100 32 139 40 187 57 265 90 11 4 49 18 85 31 70 24 157 61 205 86 17 9 62 31 100 50 39 19 78 39 88 44 10 6 37 20 60 32 23 11 65 36 92 55 28 19 59 38 70 43 60 27 404 272 440 312 6 7 53 50 104 97 91 82 136 127 233 235 25 28 62 68 82 90 34 36 192 242 224 290 7 11 15 28 18 38 4 9 10 17 14 17 16 0 159 312 193 420 61 198 67 222 67 247 0 13 4 32 10 42 5 10 14 49 19 87 5 38 19 128 31 199 12 72 26 175 30 230 5 55 13 136 18 180 6 44 17 159 26 255 9 96 21 222 28 280 6 58 14 148 18 200 9 106 33 287 50 370 36 174 45 214 70 300 15 52 35 122 44 155 9 33 23 83 31 110 63 224 95 359 95 401 0 11 -6 32 -12 47 -12 25 -17 27 -80 27 -52 0 -68 -3 -68 -14z"/> </g> </svg> 