 <svg  version="1.0" xmlns="http://www.w3.org/2000/svg"  width="300.000000pt" height="300.000000pt" viewBox="0 0 300.000000 300.000000"  preserveAspectRatio="xMidYMid meet">  <g transform="translate(0.000000,300.000000) scale(0.050000,-0.050000)" fill="#a9895b" stroke="none"> <path d="M2700 5986 c-2509 -269 -3598 -3324 -1819 -5103 1578 -1578 4278 -934 4969 1186 667 2049 -1019 4145 -3150 3917z m740 -377 c1976 -320 2904 -2795 1607 -4285 l-57 -66 -366 367 -366 368 51 153 c143 424 115 818 -60 862 l-47 12 51 98 c161 310 196 885 60 970 -81 51 -436 55 -634 7 -11 -3 -22 80 -25 195 -11 352 -334 895 -591 993 -251 95 -732 -591 -721 -1028 2 -85 0 -156 -4 -157 -122 -41 -202 15 -646 460 l-435 435 87 71 c560 459 1354 665 2096 545z m-329 -854 c274 -362 261 -675 -43 -1023 l-68 -79 -68 79 c-242 277 -298 540 -174 816 41 92 216 332 242 332 9 0 59 -56 111 -125z m-1483 -746 c-67 -160 -6 -639 111 -874 l58 -115 -47 -12 c-116 -29 -140 -90 -138 -355 4 -722 365 -1132 1048 -1190 l150 -13 10 -325 c12 -376 28 -414 180 -414 152 0 168 38 180 414 l10 325 150 13 c251 21 445 83 610 195 l85 57 354 -354 354 -354 -87 -71 c-861 -705 -2136 -772 -3086 -161 -1314 846 -1615 2684 -634 3881 l71 87 327 -327 327 -328 -33 -79z m702 -283 c293 -95 450 -313 483 -673 l13 -139 -148 11 c-443 34 -718 326 -718 762 l0 99 135 -14 c74 -7 180 -28 235 -46z m1710 -42 c0 -433 -276 -725 -718 -759 l-148 -11 13 132 c49 476 300 712 778 731 l75 3 0 -96z m-1682 -1081 c284 -109 422 -308 455 -662 l13 -141 -68 0 c-477 3 -796 314 -798 778 l0 88 145 -11 c80 -6 193 -30 253 -52z m1682 -28 c-2 -401 -211 -664 -592 -745 -228 -48 -268 -43 -268 36 0 471 301 787 755 793 l105 1 0 -85z"/> </g> </svg> 